<svg width="1200" height="220" viewBox="0 0 1200 220" fill="none" xmlns="http://www.w3.org/2000/svg">
  <g transform="translate(492, 18) scale(0.22)">
    <path d="M560.093,588.375C547.264,622.902 496.887,765.095 491.437,780.478C486.432,794.604 485.615,794.661 483.506,794.672C388.954,795.16 389.035,794.312 294.5,794.573C290.323,794.585 287.747,795.335 289.254,791.436C302.523,757.112 362.815,596.064 373.768,567.605C378.989,554.039 378.846,553.698 377.518,551.49C362.024,525.73 333.694,478.629 185.195,228.686C183.087,225.138 183.108,225.23 158.76,184.386C158.494,183.938 157.35,181.427 160.497,181.467C213.207,182.144 333.522,180.72 336.585,182.358C338.133,183.186 394.06,272.699 408.329,294.605C410.018,297.197 570.972,551.133 571.452,552.521C572.435,555.364 572.194,555.595 560.093,588.375ZM853.874,304.564C847.045,331.051 826.581,427.783 699.732,493.978C696.181,495.831 686.559,502.237 688.876,497.639C690.428,494.559 715.865,469.117 725.449,427.488C734.968,386.14 713.145,360.318 714.302,357.369C715.117,355.291 751.561,358.804 753.233,355.403C754.409,353.011 752.121,329.122 739.12,311.787C711.932,275.533 648.05,268.174 617.874,317.736C617.073,319.052 587.736,370.41 587.316,372.461C586.513,376.383 619.348,421.117 619.183,425.476C619.032,429.464 618.305,429.316 602.434,472.475C596.387,488.919 591.155,503.68 590.191,506.399C588.472,511.249 587.135,516.135 584.728,512.336C576.842,499.892 490.112,363.028 486.845,356.36C485.884,354.397 486.935,354.342 499.086,332.275C544.119,250.491 553.494,231.405 587.193,209.031C663.917,158.09 769.822,180.394 806.178,250.665C818.29,274.075 818.98,295.646 821.547,296.339C824.442,297.121 853.728,295.449 854.561,297.457C854.779,297.984 854.905,298.286 853.874,304.564Z" fill="#F3F4F6"/>
  </g>
</svg>
