<svg xmlns="http://www.w3.org/2000/svg" viewBox="0 0 110 110" shape-rendering="crispEdges"><title>Spiral C Final A</title><g><rect x="40" y="10" width="10" height="10" fill="currentColor"/><rect x="50" y="10" width="10" height="10" fill="currentColor"/><rect x="60" y="10" width="10" height="10" fill="currentColor"/><rect x="70" y="10" width="10" height="10" fill="currentColor"/><rect x="30" y="20" width="10" height="10" fill="currentColor"/><rect x="40" y="20" width="10" height="10" fill="currentColor"/><rect x="50" y="20" width="10" height="10" fill="currentColor"/><rect x="60" y="20" width="10" height="10" fill="currentColor"/><rect x="70" y="20" width="10" height="10" fill="currentColor"/><rect x="80" y="20" width="10" height="10" fill="currentColor"/><rect x="20" y="30" width="10" height="10" fill="currentColor"/><rect x="30" y="30" width="10" height="10" fill="currentColor"/><rect x="80" y="30" width="10" height="10" fill="currentColor"/><rect x="90" y="30" width="10" height="10" fill="currentColor"/><rect x="10" y="40" width="10" height="10" fill="currentColor"/><rect x="20" y="40" width="10" height="10" fill="currentColor"/><rect x="50" y="40" width="10" height="10" fill="currentColor"/><rect x="60" y="40" width="10" height="10" fill="currentColor"/><rect x="80" y="40" width="10" height="10" fill="currentColor"/><rect x="90" y="40" width="10" height="10" fill="currentColor"/><rect x="10" y="50" width="10" height="10" fill="currentColor"/><rect x="20" y="50" width="10" height="10" fill="currentColor"/><rect x="50" y="50" width="10" height="10" fill="currentColor"/><rect x="90" y="50" width="10" height="10" fill="currentColor"/><rect x="100" y="50" width="10" height="10" fill="currentColor"/><rect x="10" y="60" width="10" height="10" fill="currentColor"/><rect x="20" y="60" width="10" height="10" fill="currentColor"/><rect x="50" y="60" width="10" height="10" fill="currentColor"/><rect x="90" y="60" width="10" height="10" fill="currentColor"/><rect x="100" y="60" width="10" height="10" fill="currentColor"/><rect x="10" y="70" width="10" height="10" fill="currentColor"/><rect x="20" y="70" width="10" height="10" fill="currentColor"/><rect x="50" y="70" width="10" height="10" fill="currentColor"/><rect x="60" y="70" width="10" height="10" fill="currentColor"/><rect x="70" y="70" width="10" height="10" fill="currentColor"/><rect x="80" y="70" width="10" height="10" fill="currentColor"/><rect x="90" y="70" width="10" height="10" fill="currentColor"/><rect x="20" y="80" width="10" height="10" fill="currentColor"/><rect x="30" y="80" width="10" height="10" fill="currentColor"/><rect x="80" y="80" width="10" height="10" fill="currentColor"/><rect x="90" y="80" width="10" height="10" fill="currentColor"/><rect x="30" y="90" width="10" height="10" fill="currentColor"/><rect x="40" y="90" width="10" height="10" fill="currentColor"/><rect x="50" y="90" width="10" height="10" fill="currentColor"/><rect x="60" y="90" width="10" height="10" fill="currentColor"/><rect x="70" y="90" width="10" height="10" fill="currentColor"/><rect x="80" y="90" width="10" height="10" fill="currentColor"/><rect x="40" y="100" width="10" height="10" fill="currentColor"/><rect x="50" y="100" width="10" height="10" fill="currentColor"/><rect x="60" y="100" width="10" height="10" fill="currentColor"/></g></svg>